<svg width="64" height="64" viewBox="0 0 64 64" fill="none" xmlns="http://www.w3.org/2000/svg">
<rect x="8" y="18" width="48" height="36" rx="1" stroke="black" stroke-width="2"/>
<path d="M15 11.5V23.5" stroke="black" stroke-width="2" stroke-linecap="round"/>
<path d="M49 11.5V23.5" stroke="black" stroke-width="2" stroke-linecap="round"/>
<g filter="url(#filter0_d_1667_48)">
<path d="M25.4897 30.9718C26.9604 27.8123 31.9667 28.9356 31.9874 30.9591C31.9875 30.966 31.9931 30.9718 32 30.9718V30.9718C32.0069 30.9718 32.0125 30.966 32.0126 30.9591C32.0333 28.9356 37.0396 27.8123 38.5103 30.9718C40.6523 35.5731 35.2652 39.5804 32.0456 41.9754L32.0225 41.9925C32.016 41.9974 32.0081 42 32 42V42C31.9919 42 31.984 41.9974 31.9775 41.9925L31.9544 41.9754C28.7348 39.5804 23.3477 35.5731 25.4897 30.9718Z" fill="url(#paint0_linear_1667_48)"/>
</g>
<path d="M27.3498 32C25.8198 35.1855 29.6677 37.9598 31.9674 39.6179" stroke="white" stroke-linecap="round"/>
<defs>
<filter id="filter0_d_1667_48" x="21" y="29" width="22" height="21" filterUnits="userSpaceOnUse" color-interpolation-filters="sRGB">
<feFlood flood-opacity="0" result="BackgroundImageFix"/>
<feColorMatrix in="SourceAlpha" type="matrix" values="0 0 0 0 0 0 0 0 0 0 0 0 0 0 0 0 0 0 127 0" result="hardAlpha"/>
<feOffset dy="4"/>
<feGaussianBlur stdDeviation="2"/>
<feComposite in2="hardAlpha" operator="out"/>
<feColorMatrix type="matrix" values="0 0 0 0 0.854902 0 0 0 0 0.168627 0 0 0 0 0.290196 0 0 0 0.25 0"/>
<feBlend mode="normal" in2="BackgroundImageFix" result="effect1_dropShadow_1667_48"/>
<feBlend mode="normal" in="SourceGraphic" in2="effect1_dropShadow_1667_48" result="shape"/>
</filter>
<linearGradient id="paint0_linear_1667_48" x1="27.5" y1="29" x2="36.5" y2="40.5" gradientUnits="userSpaceOnUse">
<stop stop-color="#DA2B4A"/>
<stop offset="1" stop-color="#D2072B"/>
</linearGradient>
</defs>
</svg>
